# xmcd
# 
# Track frame offsets:
#     150
#     3240
#     32872
#     62492
#     85402
#     108227
#     122007
#     158957
# 
# Disc length: 2265
# 
# Revision: 1
# Processed by: cddbd v1.5.2PL0 Copyright (c) Steve Scherf et al.
# Submitted via: BonkEnc v1.0.6
# 
DISCID=5b08d708
DTITLE=高瀬アキ - ABC
DYEAR=1982
DGENRE=Contemporary Jazz
TTITLE0=I Hear Your Music
TTITLE1=Dohke
TTITLE2=Down Dance
TTITLE3=Arishihi
TTITLE4=ABC
TTITLE5=Subconscious Lee
TTITLE6=Silent Night
TTITLE7=Jan. 19th (dedicated to my mother)
EXTD=
EXTT0=
EXTT1=
EXTT2=
EXTT3=
EXTT4=
EXTT5=
EXTT6=
EXTT7=
PLAYORDER=
